<svg width="222" height="28" viewBox="0 0 222 28" fill="none" xmlns="http://www.w3.org/2000/svg">
<path d="M20.0568 13.8193C19.296 13.1694 18.4334 12.6492 17.5036 12.2793C16.3782 11.8303 15.214 11.485 14.0258 11.2478L10.3158 10.463C9.75849 10.3575 9.21125 10.2047 8.67996 10.0062C8.35883 9.89078 8.05794 9.72541 7.78838 9.51618C7.61983 9.39444 7.49153 9.22508 7.41996 9.02986C7.37514 8.83928 7.35777 8.64326 7.36838 8.44776C7.37254 8.1872 7.41094 7.92831 7.48259 7.67776C7.56621 7.40034 7.72879 7.15327 7.95049 6.96671C8.28922 6.70664 8.67616 6.5163 9.08891 6.40671C9.7811 6.23278 10.4939 6.15468 11.2073 6.1746C12.0992 6.16992 12.9893 6.25633 13.8636 6.4325C14.6158 6.58139 15.3549 6.78959 16.0742 7.05513C16.6397 7.26827 17.1797 7.54384 17.6842 7.87671C17.8751 7.99843 18.0596 8.13001 18.2368 8.27092C18.2579 8.28748 18.2823 8.29934 18.3083 8.30569C18.3344 8.31205 18.3615 8.31275 18.3879 8.30776C18.4145 8.30206 18.4396 8.29051 18.4613 8.27395C18.4829 8.25738 18.5006 8.23621 18.5131 8.21197L21.0294 3.37829C21.0515 3.34196 21.0606 3.29924 21.0552 3.25709C21.0499 3.21493 21.0304 3.17583 21 3.14618C19.8947 2.31355 16.7926 0.368285 11.1189 0.368285C9.60885 0.340382 8.10471 0.564509 6.66838 1.03144C5.50424 1.41499 4.4292 2.02894 3.50733 2.83671C2.68845 3.57964 2.04964 4.49941 1.63943 5.52618C1.23243 6.57635 1.02622 7.6936 1.03154 8.81986C1.00029 9.99612 1.25304 11.1626 1.76838 12.2204C2.21333 13.0956 2.84163 13.8646 3.61049 14.4751C4.37784 15.0702 5.23964 15.5322 6.15996 15.842C7.08185 16.1588 8.02651 16.4052 8.98575 16.5788L12.5558 17.2493C13.7531 17.4667 14.5747 17.7578 15.0058 18.1225C15.204 18.2818 15.363 18.4847 15.4703 18.7153C15.5777 18.9459 15.6305 19.1982 15.6247 19.4525C15.6256 19.7306 15.5808 20.0069 15.4921 20.2704C15.3938 20.5472 15.2074 20.784 14.9615 20.9446C14.5896 21.1924 14.1729 21.3651 13.7347 21.453C13.008 21.6046 12.2662 21.6713 11.5242 21.652C10.4733 21.6674 9.42363 21.5723 8.39259 21.3683C7.5189 21.1902 6.65749 20.9564 5.81365 20.6683C5.18148 20.4574 4.56577 20.2 3.97154 19.8983C3.65293 19.7426 3.34952 19.5576 3.06522 19.3457C3.03417 19.3132 2.99213 19.2935 2.94733 19.2904C2.91899 19.2955 2.89222 19.3071 2.86919 19.3244C2.84616 19.3416 2.82749 19.3641 2.8147 19.3899L0.386803 24.3157C0.370309 24.349 0.364297 24.3866 0.369558 24.4234C0.374819 24.4602 0.391106 24.4946 0.416277 24.522C0.749043 24.8093 1.12124 25.0475 1.52154 25.2293C2.28062 25.6274 3.06595 25.9733 3.87207 26.2646C4.96934 26.6666 6.09487 26.9868 7.23943 27.2225C8.63093 27.5073 10.0486 27.6444 11.4689 27.6314C14.8363 27.6314 17.4815 26.8946 19.3347 25.3951C21.1879 23.8957 22.1494 21.7993 22.1494 19.132C22.1738 18.0804 21.9975 17.0338 21.63 16.0483C21.2902 15.1908 20.7509 14.4267 20.0568 13.8193Z" fill="#163C66"/>
<path d="M44.8148 4.20728C43.4809 3.05179 41.9214 2.18612 40.2353 1.66518C38.3067 1.07501 36.2984 0.786686 34.2816 0.810439C31.5544 0.813552 28.8314 1.02292 26.1358 1.43675C26.0926 1.44451 26.0534 1.46719 26.0251 1.50085C25.9968 1.53451 25.9813 1.57701 25.9811 1.62096V26.6294C25.9807 26.6708 25.9943 26.7112 26.0197 26.744C26.0451 26.7767 26.0808 26.8 26.1211 26.8099C26.1616 26.8099 26.2758 26.8504 28.0185 27.0162C29.1753 27.1268 31.0948 27.182 33.7253 27.182C35.9281 27.2184 38.1234 26.9177 40.2353 26.2904C41.9733 25.7746 43.582 24.8956 44.9548 23.7115C46.2271 22.5621 47.2093 21.1279 47.8211 19.5262C48.4842 17.7439 48.809 15.8535 48.779 13.952C48.813 12.0304 48.4623 10.1213 47.7474 8.33728C47.0926 6.75773 46.0903 5.34607 44.8148 4.20728ZM42.2874 13.9594C42.3121 15.0663 42.1258 16.1679 41.7385 17.2052C41.4107 18.0617 40.8827 18.8272 40.1985 19.4378C39.5019 20.0365 38.6836 20.4764 37.8 20.7273C36.7814 21.0148 35.7268 21.155 34.6685 21.1436C34.0016 21.1436 33.4232 21.1436 32.9516 21.0883C32.6127 21.0625 32.3585 21.0368 32.1927 21.0183V6.81939C32.3032 6.81939 32.4985 6.78623 32.8632 6.75675C33.3458 6.7236 34.0495 6.70518 34.9485 6.70518C36.064 6.68175 37.1743 6.86409 38.2237 7.24307C39.0857 7.56506 39.8631 8.0791 40.4969 8.74623C41.1076 9.40802 41.5665 10.1951 41.8416 11.0525C42.1438 11.9916 42.2943 12.9729 42.2874 13.9594Z" fill="#163C66"/>
<path d="M65.7962 2.94721C65.0814 1.15668 63.5378 0.515629 61.6662 1.23405C61.6189 1.25216 61.5758 1.27982 61.5397 1.31532C61.5036 1.35082 61.4751 1.39339 61.4562 1.44037L51.5788 26.2646C51.5565 26.3205 51.5483 26.381 51.5548 26.4409C51.5614 26.5007 51.5825 26.558 51.6163 26.6078C51.6501 26.6576 51.6956 26.6984 51.7488 26.7265C51.802 26.7547 51.8613 26.7694 51.9214 26.7693H54.132C54.2058 26.7694 54.2779 26.7473 54.339 26.7059C54.4001 26.6645 54.4473 26.6058 54.4746 26.5372L57.2562 19.4672H68.8246L71.6025 26.5262C71.6292 26.5954 71.6762 26.655 71.7374 26.697C71.7985 26.7391 71.8709 26.7617 71.9451 26.7619H74.7341C74.7944 26.762 74.8539 26.7473 74.9072 26.719C74.9605 26.6908 75.0061 26.6498 75.0399 26.5998C75.0741 26.5496 75.0954 26.4917 75.1018 26.4313C75.1082 26.3709 75.0996 26.3098 75.0767 26.2535L65.7962 2.94721ZM67.7157 16.623H58.3725L63.0514 4.73773L67.7157 16.623Z" fill="#163C66"/>
<path d="M90.8378 17.9971C90.2841 17.5173 89.6473 17.1427 88.9589 16.8918C88.0591 16.5521 87.1214 16.3232 86.1663 16.2102L82.4378 15.7681C81.5936 15.7017 80.7788 15.4283 80.0652 14.9723C79.8176 14.7878 79.6203 14.544 79.4916 14.2633C79.3628 13.9826 79.3067 13.6741 79.3284 13.366C79.304 12.9699 79.4005 12.5756 79.6051 12.2355C79.8097 11.8954 80.1128 11.6254 80.4742 11.4613C81.5699 10.9915 82.7574 10.7749 83.9484 10.8276C84.7575 10.8183 85.5653 10.8961 86.3578 11.0597C86.9691 11.1918 87.5681 11.3755 88.1484 11.6086C88.5496 11.7711 88.9334 11.9736 89.2942 12.2129C89.4268 12.3013 89.5336 12.386 89.6221 12.4523C89.6634 12.4842 89.7111 12.507 89.7619 12.519C89.8127 12.5311 89.8655 12.5322 89.9168 12.5223C89.9687 12.5122 90.0176 12.4904 90.0597 12.4584C90.1019 12.4265 90.1362 12.3854 90.16 12.3381L91.0847 10.5771C91.1211 10.5028 91.1314 10.4184 91.114 10.3376C91.0967 10.2567 91.0526 10.184 90.9889 10.1313C90.2521 9.55286 88.1226 8.21549 83.9889 8.21549C82.8054 8.19016 81.6243 8.33407 80.4815 8.64286C79.6187 8.86957 78.8104 9.26805 78.1052 9.81444C77.5378 10.2687 77.0911 10.8558 76.8047 11.5239C76.5574 12.1425 76.4323 12.803 76.4363 13.4692C76.4114 14.1302 76.5344 14.7885 76.7964 15.3959C77.0583 16.0034 77.4526 16.5446 77.9505 16.9802C78.9305 17.8276 80.3563 18.3692 82.1873 18.5829L85.6247 18.9955C87.0763 19.1723 88.0563 19.4855 88.5389 19.9239C88.778 20.1456 88.9651 20.4175 89.0868 20.7201C89.2084 21.0226 89.2616 21.3484 89.2426 21.6739C89.2598 22.0893 89.145 22.4994 88.9147 22.8455C88.6659 23.1861 88.3386 23.4617 87.9605 23.6487C87.489 23.887 86.983 24.0498 86.461 24.1313C85.8313 24.2334 85.1942 24.2827 84.5563 24.2787C83.7118 24.2858 82.8688 24.208 82.0399 24.0465C81.357 23.9123 80.6837 23.7326 80.0247 23.5087C79.5407 23.3447 79.0681 23.149 78.6099 22.9229L77.8473 22.5287C77.7631 22.4853 77.6655 22.4761 77.5747 22.5029C77.4831 22.5317 77.4065 22.5952 77.361 22.6797L76.4436 24.4371C76.4067 24.5122 76.3964 24.5976 76.4145 24.6793C76.4326 24.7609 76.478 24.8341 76.5431 24.8865C76.7982 25.0621 77.0668 25.2174 77.3463 25.3508C77.8962 25.6277 78.4695 25.8558 79.0594 26.0323C79.8625 26.2826 80.6793 26.4868 81.5057 26.6439C82.5217 26.8407 83.5547 26.9357 84.5894 26.9276C85.6885 26.9478 86.785 26.8126 87.8463 26.526C88.7067 26.2954 89.5172 25.9083 90.2373 25.3839C90.865 24.923 91.3708 24.316 91.711 23.6155C92.0486 22.9148 92.22 22.1458 92.2121 21.3681C92.2195 20.7399 92.1121 20.1156 91.8952 19.526C91.6671 18.9407 91.3049 18.4171 90.8378 17.9971Z" fill="#163C66"/>
<path d="M117.239 2.57875C117.062 2.21693 116.79 1.91089 116.45 1.6944C116.111 1.47791 115.718 1.35939 115.316 1.35191C115.039 1.34668 114.765 1.4005 114.511 1.50977C114.256 1.61905 114.029 1.78126 113.842 1.98559C113.649 2.18659 113.496 2.4238 113.395 2.68363C113.293 2.94345 113.243 3.22081 113.249 3.4998C113.245 3.91278 113.353 4.3191 113.561 4.67579C113.769 5.03248 114.07 5.32628 114.432 5.52612C114.459 5.54546 114.491 5.55923 114.524 5.56665C114.773 5.64635 115.032 5.68735 115.294 5.68823C115.571 5.6888 115.845 5.63142 116.099 5.51975C116.353 5.40809 116.58 5.24461 116.767 5.03981C117.058 4.73116 117.257 4.34852 117.344 3.93388C117.431 3.51924 117.403 3.08862 117.261 2.68928C117.258 2.65165 117.251 2.61452 117.239 2.57875Z" fill="#163C66"/>
<path d="M116.414 8.72412H114.251C114.054 8.72412 113.894 8.88412 113.894 9.08149V26.1136C113.894 26.311 114.054 26.471 114.251 26.471H116.414C116.611 26.471 116.771 26.311 116.771 26.1136V9.08149C116.771 8.88412 116.611 8.72412 116.414 8.72412Z" fill="#163C66"/>
<path d="M149.303 23.4719C149.25 23.3913 149.168 23.3345 149.074 23.3135C148.98 23.2956 148.882 23.3154 148.802 23.3688C148.408 23.6164 147.991 23.8237 147.556 23.9877C147.016 24.2031 146.439 24.3119 145.858 24.3083C145.044 24.3478 144.244 24.0956 143.599 23.5972C143.054 23.144 142.778 22.3188 142.778 21.1472V11.5093H147.652C147.75 11.5093 147.844 11.4705 147.913 11.4014C147.982 11.3323 148.021 11.2386 148.021 11.1409V9.08142C148.021 8.98371 147.982 8.89 147.913 8.8209C147.844 8.75181 147.75 8.713 147.652 8.713H142.778V4.4651C142.778 4.36739 142.739 4.27368 142.67 4.20459C142.601 4.1355 142.507 4.09668 142.409 4.09668H140.258C140.16 4.09668 140.066 4.1355 139.997 4.20459C139.928 4.27368 139.889 4.36739 139.889 4.4651V21.5267C139.883 22.2556 139.993 22.9809 140.217 23.6746C140.427 24.3176 140.773 24.9081 141.231 25.4062C141.704 25.9098 142.284 26.3002 142.929 26.5483C143.695 26.8331 144.507 26.9706 145.324 26.9535C145.913 26.957 146.502 26.9028 147.081 26.7914C147.564 26.6989 148.036 26.5595 148.492 26.3751C148.844 26.2298 149.187 26.0612 149.516 25.8704C149.754 25.7424 149.978 25.5919 150.187 25.4209C150.25 25.3633 150.291 25.2854 150.303 25.2007C150.315 25.116 150.298 25.0297 150.253 24.9567L149.303 23.4719Z" fill="#163C66"/>
<path d="M164.386 10.0062C162.883 8.83461 160.772 8.24146 158.104 8.24146C155.739 8.24146 154.265 8.77567 153.444 9.22145C153.363 9.26865 153.303 9.34477 153.276 9.43439C153.25 9.52401 153.258 9.62043 153.3 9.70409L154.214 11.4467C154.259 11.5284 154.334 11.5899 154.423 11.6186C154.511 11.6474 154.608 11.6412 154.693 11.6015C154.873 11.5057 155.083 11.4136 155.33 11.3067C156.238 10.9728 157.203 10.8189 158.17 10.8536C158.905 10.852 159.639 10.9248 160.359 11.0709C160.998 11.1991 161.603 11.4602 162.135 11.8372C162.664 12.2286 163.088 12.745 163.369 13.3404C163.686 14.0559 163.845 14.8311 163.837 15.6136L163.339 15.5509C162.927 15.503 162.492 15.4625 162.046 15.4293L160.573 15.3262C158.789 15.1561 156.989 15.2806 155.245 15.6946C154.344 15.9172 153.501 16.3278 152.769 16.8993C152.155 17.3939 151.689 18.0477 151.421 18.7893C150.935 20.2191 150.909 21.7653 151.347 23.2104C151.59 23.9529 152.035 24.6128 152.633 25.1151C153.398 25.7369 154.286 26.1902 155.238 26.4451C156.644 26.8204 158.097 26.9892 159.552 26.9462C160.914 26.9529 162.275 26.8889 163.63 26.7546C164.82 26.6293 165.749 26.5078 166.394 26.3862C166.478 26.369 166.554 26.3227 166.608 26.2553C166.662 26.188 166.69 26.104 166.688 26.0178V15.702C166.685 13.1267 165.911 11.1999 164.386 10.0062ZM159.596 24.4446C157.515 24.4446 156.019 24.1646 155.153 23.6193C154.287 23.0741 153.93 22.3041 153.93 21.1804C153.911 20.6187 154.026 20.0606 154.265 19.552C154.482 19.1324 154.811 18.7816 155.216 18.5388C155.698 18.2596 156.228 18.071 156.778 17.9825C157.483 17.8669 158.197 17.8114 158.911 17.8167C160.134 17.794 161.357 17.8617 162.569 18.0193L163.822 18.233V24.0393C163.605 24.0909 163.258 24.1609 162.717 24.2604C161.688 24.4058 160.65 24.4674 159.611 24.4446H159.596Z" fill="#163C66"/>
<path d="M178.795 8.20825C177.773 8.23211 176.768 8.47695 175.85 8.92595C174.931 9.37494 174.121 10.0174 173.475 10.8093L173.534 9.09615C173.536 9.04776 173.527 8.99947 173.51 8.95442C173.492 8.90936 173.465 8.86853 173.43 8.83457C173.362 8.76515 173.27 8.72543 173.173 8.72404H171.014C170.916 8.72404 170.822 8.76286 170.753 8.83195C170.684 8.90104 170.645 8.99475 170.645 9.09246V26.1098C170.645 26.2075 170.684 26.3013 170.753 26.3703C170.822 26.4394 170.916 26.4783 171.014 26.4783H173.158C173.255 26.4783 173.349 26.4394 173.418 26.3703C173.487 26.3013 173.526 26.2075 173.526 26.1098V17.3156C173.526 16.2398 173.78 10.8867 178.787 10.8867C183.595 10.8867 183.735 15.5435 183.735 16.0777V26.0988C183.735 26.1965 183.774 26.2902 183.843 26.3593C183.912 26.4284 184.006 26.4672 184.104 26.4672H186.266C186.364 26.4672 186.458 26.4284 186.527 26.3593C186.596 26.2902 186.635 26.1965 186.635 26.0988V15.9672C186.62 13.0677 185.603 8.20825 178.795 8.20825Z" fill="#163C66"/>
<path d="M194.213 12.5042C194.742 11.9707 195.384 11.5639 196.092 11.3142C196.869 11.0461 197.687 10.914 198.509 10.9237C199.484 10.8925 200.455 11.0683 201.357 11.4395C201.867 11.6657 202.353 11.9447 202.805 12.2721C202.847 12.3045 202.895 12.3275 202.946 12.3396C202.998 12.3517 203.051 12.3526 203.103 12.3421C203.154 12.3301 203.201 12.3074 203.243 12.2757C203.284 12.2439 203.318 12.2038 203.343 12.1579L204.245 10.4374C204.28 10.3667 204.291 10.2867 204.278 10.2091C204.264 10.1315 204.225 10.0604 204.168 10.0063C203.593 9.4758 201.887 8.24159 198.542 8.24159C197.305 8.23101 196.075 8.44316 194.913 8.8679C193.828 9.26873 192.844 9.90399 192.032 10.7284C191.205 11.5874 190.565 12.6085 190.153 13.7274C189.683 15.0107 189.454 16.3694 189.475 17.7358C189.454 19.0625 189.684 20.3813 190.153 21.6226C190.571 22.7147 191.212 23.7074 192.036 24.5368C192.846 25.3401 193.821 25.9563 194.895 26.3421C196.031 26.7564 197.233 26.9635 198.443 26.9537C199.59 26.9916 200.735 26.8385 201.832 26.5005C202.62 26.2376 203.382 25.8996 204.105 25.4911C204.183 25.4428 204.24 25.3675 204.265 25.2797C204.29 25.1919 204.282 25.0978 204.242 25.0158L203.357 23.3247C203.311 23.2395 203.233 23.1759 203.14 23.1479C203.093 23.1343 203.044 23.1302 202.995 23.1359C202.946 23.1416 202.899 23.1569 202.856 23.1811C202.389 23.4463 201.906 23.6814 201.408 23.8847C200.587 24.1725 199.717 24.2976 198.848 24.2532C198.006 24.2628 197.169 24.1359 196.368 23.8774C195.596 23.6335 194.891 23.2133 194.309 22.6499C193.727 22.0866 193.285 21.3956 193.016 20.6316C192.66 19.646 192.49 18.6029 192.515 17.5553C192.494 16.5369 192.649 15.5225 192.972 14.5563C193.229 13.7893 193.653 13.0886 194.213 12.5042Z" fill="#163C66"/>
<path d="M210.173 19.6515C210.755 19.6515 211.396 19.6258 212.096 19.6C213.632 19.5726 215.161 19.3824 216.657 19.0326C217.698 18.7912 218.688 18.3657 219.579 17.7763C220.262 17.3175 220.806 16.6804 221.152 15.9342C221.447 15.2218 221.581 14.4533 221.546 13.6831C221.534 12.9037 221.366 12.1346 221.053 11.421C220.734 10.7272 220.261 10.115 219.671 9.63049C219.019 9.11169 218.266 8.73518 217.46 8.52523C216.487 8.26726 215.479 8.16285 214.473 8.21576C213.209 8.24816 211.964 8.53118 210.81 9.04839C209.727 9.53513 208.757 10.2429 207.963 11.1263C207.156 12.0322 206.542 13.0926 206.157 14.2431C205.724 15.5029 205.528 16.832 205.579 18.1631C205.597 19.4958 205.887 20.8108 206.43 22.0279C206.91 23.0915 207.613 24.0391 208.493 24.8058C209.356 25.5442 210.358 26.1017 211.44 26.4452C212.458 26.7671 213.52 26.9275 214.587 26.9205C214.712 26.9205 214.841 26.9205 214.955 26.9205C215.681 26.8991 216.402 26.8078 217.11 26.6479C217.703 26.51 218.284 26.3277 218.849 26.1026C219.302 25.9271 219.74 25.7139 220.157 25.4652C220.426 25.3031 220.636 25.1668 220.82 25.0489C220.894 24.9987 220.946 24.9237 220.969 24.8377C220.991 24.7517 220.982 24.6606 220.942 24.581L220.054 22.8789C220.03 22.8349 219.998 22.7962 219.959 22.7651C219.919 22.7341 219.874 22.7114 219.826 22.6984C219.777 22.6864 219.727 22.6845 219.677 22.6927C219.628 22.701 219.581 22.7192 219.538 22.7463C218.99 23.0897 218.418 23.3961 217.829 23.6637C216.985 24.031 216.075 24.2228 215.154 24.2273C213.356 24.2937 211.872 23.8884 210.755 23.0226C209.707 22.1719 208.993 20.9778 208.74 19.6515C209.263 19.6552 209.727 19.6589 210.173 19.6515ZM211.68 17.1021C211.072 17.1242 210.49 17.1389 209.937 17.15C209.484 17.15 209.031 17.15 208.585 17.15C208.606 16.419 208.73 15.6947 208.954 14.9984C209.194 14.2268 209.568 13.5035 210.059 12.8615C210.549 12.2357 211.167 11.7219 211.872 11.3547C212.662 10.9606 213.531 10.749 214.414 10.7358C214.943 10.7148 215.472 10.7494 215.994 10.8389C216.467 10.9212 216.923 11.0831 217.343 11.3179C217.719 11.5336 218.036 11.8401 218.264 12.2094C218.51 12.6452 218.637 13.1383 218.632 13.6389C218.647 14.0615 218.562 14.4817 218.385 14.8658C218.162 15.2956 217.819 15.6515 217.398 15.89C216.732 16.2721 216.009 16.5457 215.257 16.7005C214.081 16.9488 212.883 17.0832 211.68 17.1021Z" fill="#163C66"/>
<path d="M108.832 17.9971C108.276 17.5181 107.638 17.1437 106.949 16.8918C106.05 16.5525 105.114 16.3236 104.16 16.2102L100.428 15.7681C99.5837 15.7017 98.7688 15.4283 98.0553 14.9723C97.8077 14.7878 97.6104 14.544 97.4817 14.2633C97.3529 13.9826 97.2968 13.6741 97.3184 13.366C97.2933 12.9702 97.389 12.576 97.593 12.2359C97.797 11.8957 98.0995 11.6256 98.4606 11.4613C99.5576 10.9916 100.746 10.775 101.938 10.8276C102.748 10.8185 103.555 10.8963 104.348 11.0597C104.948 11.1939 105.536 11.3775 106.105 11.6086C106.507 11.7711 106.89 11.9736 107.251 12.2129C107.384 12.3013 107.494 12.386 107.579 12.4523C107.621 12.4837 107.669 12.5058 107.72 12.517C107.771 12.5283 107.824 12.5286 107.876 12.5178C107.927 12.5069 107.975 12.4853 108.017 12.4544C108.06 12.4234 108.095 12.3838 108.121 12.3381L109.042 10.5771C109.078 10.5028 109.088 10.4184 109.071 10.3376C109.054 10.2567 109.009 10.184 108.946 10.1313C108.209 9.55286 106.079 8.21549 101.946 8.21549C100.762 8.19016 99.5812 8.33407 98.4384 8.64286C97.5899 8.8746 96.7958 9.27286 96.1027 9.81444C95.5366 10.2691 95.0912 10.8562 94.8058 11.5239C94.5509 12.1408 94.4194 12.8017 94.419 13.4692C94.3925 14.1304 94.5148 14.7892 94.7769 15.3969C95.0389 16.0045 95.4341 16.5456 95.9332 16.9802C96.9095 17.8276 98.3353 18.3692 100.17 18.5829L103.607 18.9955C105.055 19.1723 106.039 19.4855 106.522 19.9239C106.76 20.146 106.946 20.418 107.067 20.7206C107.188 21.0231 107.241 21.3487 107.222 21.6739C107.239 22.0893 107.124 22.4994 106.894 22.8455C106.645 23.1861 106.318 23.4617 105.939 23.6486C105.468 23.887 104.962 24.0498 104.44 24.1313C103.81 24.2334 103.173 24.2827 102.535 24.2787C101.691 24.2856 100.848 24.2078 100.019 24.0465C99.3346 23.9133 98.66 23.7335 98 23.5086C97.517 23.3455 97.0456 23.1498 96.589 22.9229L95.8227 22.5286C95.7385 22.4853 95.6408 22.4761 95.55 22.5029C95.5048 22.5165 95.4629 22.5392 95.4268 22.5696C95.3906 22.6 95.3611 22.6375 95.34 22.6797L94.4227 24.4371C94.3853 24.5118 94.3745 24.5969 94.3919 24.6786C94.4093 24.7602 94.4539 24.8336 94.5184 24.8865C94.7745 25.0626 95.0443 25.2179 95.3253 25.3508C95.875 25.6284 96.4483 25.8565 97.0385 26.0323C97.8403 26.2827 98.6559 26.4868 99.4811 26.6439C100.497 26.8405 101.53 26.9355 102.565 26.9276C103.669 26.9497 104.77 26.8145 105.836 26.526C106.697 26.2961 107.508 25.9089 108.227 25.3839C108.855 24.923 109.361 24.316 109.701 23.6155C110.042 22.9157 110.214 22.1463 110.206 21.3681C110.214 20.7396 110.105 20.115 109.885 19.526C109.657 18.9417 109.296 18.4183 108.832 17.9971Z" fill="#163C66"/>
<path d="M136.113 19.526C135.884 18.94 135.522 18.4153 135.056 17.9934C134.502 17.5136 133.865 17.1391 133.177 16.8881C132.277 16.5497 131.339 16.322 130.384 16.2102L126.656 15.7681C125.811 15.7017 124.997 15.4283 124.283 14.9723C124.035 14.7878 123.838 14.544 123.709 14.2633C123.581 13.9826 123.525 13.6741 123.546 13.366C123.522 12.9699 123.618 12.5756 123.823 12.2355C124.028 11.8954 124.331 11.6254 124.692 11.4613C125.788 10.9915 126.975 10.7749 128.166 10.8276C128.975 10.8183 129.783 10.8961 130.576 11.0597C131.187 11.1918 131.786 11.3755 132.366 11.6086C132.767 11.7711 133.151 11.9736 133.512 12.2129C133.641 12.3013 133.751 12.386 133.84 12.4523C133.881 12.4842 133.929 12.507 133.98 12.519C134.031 12.5311 134.083 12.5322 134.135 12.5223C134.187 12.5122 134.235 12.4904 134.278 12.4584C134.32 12.4265 134.354 12.3854 134.378 12.3381L135.303 10.5771C135.339 10.5028 135.349 10.4184 135.332 10.3376C135.315 10.2567 135.27 10.184 135.207 10.1313C134.47 9.55286 132.34 8.21549 128.207 8.21549C127.023 8.19016 125.842 8.33407 124.699 8.64286C123.851 8.8746 123.057 9.27286 122.364 9.81444C121.796 10.2687 121.349 10.8558 121.063 11.5239C120.816 12.1427 120.691 12.8031 120.695 13.4692C120.669 14.1307 120.791 14.7897 121.054 15.3974C121.317 16.0051 121.713 16.546 122.213 16.9802C123.189 17.8276 124.615 18.3692 126.446 18.5829L129.887 18.9955C131.335 19.1723 132.315 19.4855 132.797 19.9239C133.036 20.1456 133.223 20.4175 133.345 20.7201C133.467 21.0226 133.52 21.3484 133.501 21.6739C133.518 22.0893 133.403 22.4994 133.173 22.8455C132.921 23.1834 132.595 23.4584 132.219 23.6487C131.747 23.887 131.241 24.0498 130.719 24.1313C130.09 24.2334 129.453 24.2827 128.815 24.2787C127.97 24.2858 127.127 24.208 126.298 24.0465C125.615 23.914 124.942 23.7343 124.283 23.5087C123.799 23.3447 123.326 23.149 122.868 22.9229L122.106 22.5287C122.021 22.4853 121.924 22.4761 121.833 22.5029C121.742 22.5317 121.665 22.5952 121.619 22.6797L120.702 24.4371C120.665 24.5122 120.655 24.5976 120.673 24.6793C120.691 24.7609 120.736 24.8341 120.801 24.8865C121.049 25.0598 121.309 25.215 121.579 25.3508C122.129 25.6271 122.702 25.8551 123.292 26.0323C124.095 26.2826 124.912 26.4868 125.738 26.6439C126.754 26.8405 127.787 26.9355 128.822 26.9276C129.916 26.9464 131.008 26.8112 132.064 26.526C132.925 26.2954 133.735 25.9083 134.455 25.3839C135.083 24.923 135.589 24.316 135.929 23.6155C136.266 22.9148 136.438 22.1458 136.43 21.3681C136.437 20.7399 136.33 20.1156 136.113 19.526Z" fill="#163C66"/>
</svg>
